<?xml version="1.0" encoding="UTF-8"?>
<svg version="1.1" xmlns="http://www.w3.org/2000/svg" width="588" height="628">
<path d="M0 0 C1.21860456 -0.00262956 1.21860456 -0.00262956 2.4618274 -0.00531223 C5.19538672 -0.00997952 7.92889303 -0.00750485 10.66245461 -0.00507832 C12.63756085 -0.00694592 14.61266673 -0.00924642 16.58777201 -0.01194364 C22.02431903 -0.01807427 27.46085069 -0.01792656 32.89740038 -0.01674926 C38.75708091 -0.01654558 44.61675648 -0.02206092 50.47643471 -0.02680683 C61.95971552 -0.03512072 73.44299119 -0.037862 84.92627476 -0.03841921 C94.2577143 -0.03889399 103.58915227 -0.04093612 112.92059135 -0.04411983 C115.60577063 -0.04501736 118.2909499 -0.04590718 120.97612917 -0.04679471 C121.64365421 -0.04701576 122.31117925 -0.04723681 122.99893232 -0.04746456 C141.77698784 -0.05361937 160.55504279 -0.05756505 179.33309937 -0.05712128 C180.04118282 -0.0571057 180.74926628 -0.05709012 181.47880681 -0.05707407 C185.06774404 -0.05699096 188.65668127 -0.05689192 192.24561851 -0.05678936 C192.95840653 -0.05676942 193.67119455 -0.05674947 194.4055822 -0.05672892 C195.8470132 -0.05668848 197.2884442 -0.05664669 198.72987519 -0.05660353 C221.15968882 -0.05599068 243.58948734 -0.06349887 266.01929665 -0.07717609 C291.21337948 -0.09253255 316.40745239 -0.10114259 341.60154021 -0.10021287 C344.28734819 -0.10013824 346.97315617 -0.10008953 349.65896416 -0.10005856 C350.32028877 -0.1000469 350.98161339 -0.10003525 351.66297815 -0.10002324 C361.65114617 -0.09999436 371.63929843 -0.10534644 381.62746239 -0.11339092 C392.98564245 -0.12248003 404.34379774 -0.12468427 415.70197986 -0.1178815 C421.49921196 -0.11460832 427.29639649 -0.11458831 433.09362411 -0.12323475 C438.3983658 -0.13106544 443.70302192 -0.12970358 449.00776143 -0.12095062 C450.92898933 -0.11940804 452.85022351 -0.12126011 454.77144401 -0.12681069 C457.37956841 -0.13384801 459.98739075 -0.12859502 462.59550476 -0.12025452 C463.34416789 -0.1252227 464.09283103 -0.13019088 464.86418092 -0.13530961 C470.20016825 -0.09914952 475.63586991 0.23738884 479.88453102 3.7497282 C480.35117165 4.34914227 480.81781227 4.94855633 481.29859352 5.56613445 C482.02175758 6.46138836 482.02175758 6.46138836 482.75953102 7.3747282 C484.99640021 10.74504453 485.05008832 13.67744665 485.05502129 17.60237312 C485.05886243 18.74698303 485.06270358 19.89159293 485.06666112 21.07088798 C485.06579464 22.33408601 485.06492815 23.59728404 485.06403542 24.8987608 C485.06661855 26.24985783 485.06963156 27.6009541 485.07303882 28.95204931 C485.08111875 32.67322552 485.08289895 36.39438244 485.08363628 40.11556637 C485.08548521 44.12601085 485.09303194 48.13644528 485.0997715 52.14688396 C485.11336434 60.9220242 485.11938156 69.69715987 485.12378216 78.47230887 C485.12654405 83.95283496 485.13078142 89.43335927 485.13528633 94.91388416 C485.14748228 110.08995579 485.15777962 125.26602601 485.16116142 140.44210243 C485.16138099 141.41382243 485.16160055 142.38554242 485.16182677 143.38670847 C485.16204505 144.36075655 485.16226333 145.33480462 485.16248822 146.33836931 C485.16293169 148.31215886 485.16337825 150.28594842 485.1638279 152.25973797 C485.16404933 153.238806 485.16427076 154.21787403 485.1644989 155.22661079 C485.16844365 171.07749069 485.18588636 186.92832453 485.20918742 202.77918666 C485.23292124 219.05604003 485.24536427 235.33287032 485.24652934 251.60974127 C485.24744518 260.74722332 485.25317411 269.88464543 485.27134895 279.02211094 C485.28677763 286.80643559 485.29185426 294.59068178 485.28361085 302.37501883 C485.27971357 306.34408269 485.28058847 310.31298869 485.2946682 314.28203297 C485.30746333 317.92241497 485.30616086 321.56252141 485.29407749 325.20290334 C485.29121422 327.12951009 485.30301387 329.05612185 485.31549954 330.98269027 C485.22428935 347.15010952 480.51157619 360.09981609 469.34156227 371.9059782 C459.85798122 380.62351878 447.53097629 385.24488293 434.76975441 385.26285553 C433.70073473 385.26638388 433.70073473 385.26638388 432.61011869 385.2699835 C430.21573429 385.2766544 427.82140439 385.27621585 425.42701149 385.27580547 C423.69541943 385.27910529 421.96382813 385.28283111 420.23223782 385.28694695 C415.46856881 385.29696172 410.7049124 385.30068291 405.94123435 385.30333626 C400.80536918 385.30724088 395.66951397 385.31681912 390.53365517 385.32554913 C378.1277093 385.3453093 365.72176263 385.35537928 353.31580496 385.36427692 C347.47279717 385.36866063 341.62979029 385.37402723 335.78678322 385.37926579 C316.36177191 385.39627777 296.93676116 385.41077172 277.51174355 385.41801453 C272.47112973 385.4199244 267.43051591 385.42184474 262.38990211 385.42380047 C260.5106852 385.42452608 260.5106852 385.42452608 258.59350431 385.42526635 C238.30091649 385.43356582 218.00838763 385.45890149 197.71582556 385.49138115 C176.87930465 385.52445939 156.0428137 385.54246399 135.2062664 385.54565877 C123.50838757 385.54782317 111.81059471 385.55656171 100.11274147 385.58211994 C90.14982013 385.60383736 80.18700566 385.61187219 70.22406334 385.60215316 C65.14296593 385.5976115 60.06208898 385.59948708 54.98102188 385.6189146 C50.32351786 385.63656842 45.66639476 385.63553051 41.00888658 385.62001731 C39.32980716 385.61764462 37.65070121 385.62194713 35.97166228 385.63384596 C18.97713295 385.74675788 4.57330499 381.90261166 -8.19750023 370.1637907 C-17.28748715 360.31787971 -22.19105744 347.62068202 -22.20783424 334.28460979 C-22.21359596 332.55841002 -22.21359596 332.55841002 -22.21947408 330.79733753 C-22.21860759 329.54267626 -22.21774111 328.28801498 -22.21684837 326.99533367 C-22.21943393 325.64149612 -22.22244762 324.28765933 -22.22585177 322.93382359 C-22.23390215 319.2192433 -22.23571024 315.50468235 -22.23644924 311.79009438 C-22.23830312 307.78186242 -22.24585194 303.77364042 -22.25258446 299.76541424 C-22.26615241 291.00531685 -22.27218955 282.24522405 -22.27659512 273.48511791 C-22.27935906 268.01584558 -22.28359658 262.54657502 -22.28809929 257.07730389 C-22.30028789 241.93455396 -22.31058935 226.79180544 -22.31397438 211.64905071 C-22.31419395 210.68039432 -22.31441351 209.71173793 -22.31463973 208.71372831 C-22.31485801 207.74276672 -22.31507629 206.77180514 -22.31530118 205.77142048 C-22.31574465 203.80390326 -22.31619121 201.83638604 -22.31664085 199.86886883 C-22.316973 198.40493667 -22.316973 198.40493667 -22.31731185 196.91143012 C-22.3212627 181.08578695 -22.33872728 165.26018975 -22.36200038 149.43456435 C-22.38570125 133.1870253 -22.39817558 116.93950933 -22.3993423 100.69195271 C-22.40025955 91.56923829 -22.40602487 82.44658383 -22.42416191 73.32388592 C-22.43954555 65.55885923 -22.4446935 57.79391104 -22.43642381 50.02887201 C-22.43251169 46.06660646 -22.43347433 42.1044991 -22.44748116 38.14225292 C-22.46018585 34.51525673 -22.45905304 30.88853818 -22.44689044 27.26154256 C-22.44399748 25.32766114 -22.45589495 23.39377508 -22.4683125 21.45993137 C-22.42994412 14.75957158 -22.22785556 9.75366195 -17.64671898 4.4841032 C-11.99651232 -0.08187461 -7.02785302 -0.01917378 0 0 Z M297.92359352 70.12863445 C297.16949196 70.85695477 296.4153904 71.58527508 295.63843727 72.3356657 C292.62074331 75.28358639 289.75287259 78.29563466 287.03687477 81.5231657 C280.94668271 88.51973732 274.19476927 94.91119681 267.60279274 101.42892742 C259.78543017 109.0637473 259.78543017 109.0637473 252.42359352 117.12863445 C246.60688555 123.97139526 239.98387822 130.11971258 233.60279274 136.42892742 C225.79667943 144.04992085 225.79667943 144.04992085 218.45093727 152.10519695 C215.26934642 155.85022546 211.82228995 159.29006603 208.33374977 162.74582195 C207.73988472 163.33417828 207.14601967 163.9225346 206.53415871 164.5287199 C204.05150745 166.98357424 201.56520306 169.43465878 199.07471657 171.88156414 C197.24008633 173.68618046 195.41157302 175.49681531 193.58374977 177.30832195 C193.01511711 177.86349499 192.44648445 178.41866802 191.8606205 178.99066448 C190.50997303 180.33250152 189.21118893 181.72618186 187.92359352 183.12863445 C187.92359352 183.78863445 187.92359352 184.44863445 187.92359352 185.12863445 C182.51485833 180.81172469 177.79565822 175.94998059 173.11109352 170.87863445 C171.88846792 169.56089768 170.66581173 168.24318929 169.44312477 166.92550945 C167.7624727 165.11354934 166.08234529 163.30125973 164.40943336 161.48215008 C153.73938134 149.95214575 141.96784692 142.3943794 125.92359352 141.75363445 C112.62681193 142.24374018 101.05350155 147.15937403 91.76734352 156.62448406 C83.1940724 165.94050435 79.51088778 177.0146336 79.98609352 189.50363445 C81.63069205 205.57155112 91.32681038 215.88360395 102.42359352 226.69113445 C111.61102698 235.68262739 111.61102698 235.68262739 115.17359352 239.8747282 C120.54831398 246.14133389 126.55717438 251.82828922 132.42359352 257.62863445 C134.81204273 259.99018239 137.19813964 262.35403266 139.57984352 264.72238445 C140.14706123 265.28628887 140.71427895 265.85019329 141.29868507 266.43118572 C144.87054223 270.00680892 148.2274873 273.7056333 151.50464821 277.5544157 C160.1075059 287.09867351 172.54671538 292.3784842 185.14624977 293.38644695 C200.03316403 293.88102882 213.91643393 288.64917547 225.33765602 279.11300945 C227.84896747 276.65017892 230.13491587 274.05085981 232.42017555 271.37863445 C237.33972099 265.67836342 242.58985968 260.39850366 247.96265602 255.12863445 C251.88346123 251.25324398 255.58034447 247.2736736 259.17749977 243.09738445 C262.10987787 239.79107894 265.26943484 236.7214533 268.42359352 233.62863445 C274.09959746 228.04412238 274.09959746 228.04412238 279.42359352 222.12863445 C283.42073772 217.38202572 287.90482661 213.09841818 292.33179665 208.7575407 C295.4786183 205.65337669 298.50695343 202.50981581 301.39234352 199.15988445 C305.65499265 194.21636223 310.3055952 189.69647955 314.96265602 185.12863445 C318.88346123 181.25324398 322.58034447 177.2736736 326.17749977 173.09738445 C329.69449805 169.13190989 333.53321049 165.48004051 337.31812477 161.7731657 C340.46803127 158.66238848 343.50245312 155.51504066 346.39234352 152.15988445 C350.65499265 147.21636223 355.3055952 142.69647955 359.96265602 138.12863445 C371.92774494 126.3021373 381.97010441 114.95422658 383.17359352 97.50363445 C382.93684269 85.07421592 377.7428682 73.92191825 369.42359352 64.87863445 C360.23631573 56.18946208 349.02050758 51.7902282 336.48609352 50.87863445 C319.98866341 52.03634885 309.34184188 58.77517048 297.92359352 70.12863445 Z " fill="#0077B6" transform="translate(22.076406478881836,161.87136554718018)"/>
<path d="M0 0 C13.69950547 8.29688359 21.67775659 19.2047577 25.8359375 34.4921875 C26.7208221 38.95435508 26.96287151 43.17896786 26.96736526 47.72501564 C26.9694179 48.43408375 26.97147053 49.14315186 26.97358537 49.87370688 C26.97923995 52.24977602 26.97780003 54.62578691 26.97637939 57.00186157 C26.97896392 58.72265482 26.98197732 60.44344747 26.9853828 62.16423929 C26.99344584 66.89337669 26.99524198 71.62249891 26.99598026 76.35164237 C26.99783203 81.45202271 27.00537999 86.5523952 27.01211548 91.652771 C27.02569441 102.80575722 27.03172284 113.95873985 27.03612614 125.11173296 C27.03888931 132.0765786 27.04312681 139.04142285 27.04763031 146.00626755 C27.05982243 165.29235306 27.07012184 184.57843746 27.0735054 203.86452675 C27.07372497 205.09875878 27.07394453 206.33299081 27.07417075 207.60462382 C27.07438903 208.84179796 27.07460731 210.07897211 27.0748322 211.35363638 C27.07527567 213.86059483 27.07572223 216.36755327 27.07617188 218.87451172 C27.0763933 220.11804796 27.07661473 221.3615842 27.07684287 222.64280336 C27.08079051 242.7904948 27.09824375 262.93815007 27.1215314 283.08582754 C27.14525103 303.77434391 27.15770753 324.46284213 27.15887332 345.15137231 C27.15978974 356.76590913 27.16553371 368.38039881 27.18369293 379.99492264 C27.19910215 389.88537338 27.20420951 399.77576242 27.19595483 409.66622289 C27.19205126 414.71071148 27.19296371 419.75507584 27.20701218 424.7995491 C27.21976841 429.42236661 27.21853842 434.04496674 27.20642146 438.66778402 C27.20446746 440.33537316 27.20752914 442.00297778 27.21626583 443.67054518 C27.3003554 460.81339567 24.34259206 476.58626213 12.09765625 489.4609375 C2.09943156 498.44034482 -9.85549963 503.61033871 -23.25822544 503.62361526 C-24.31756428 503.62669422 -24.31756428 503.62669422 -25.3983039 503.62983537 C-27.77072618 503.63550111 -30.14309033 503.63404864 -32.51551819 503.63262939 C-34.23132358 503.63521328 -35.94712838 503.63822651 -37.66293234 503.6416328 C-42.38292752 503.64970342 -47.10290749 503.65149241 -51.82290876 503.65223026 C-56.91171831 503.65408073 -62.00051996 503.66162809 -67.08932495 503.66836548 C-78.21964384 503.68195026 -89.34995913 503.68797388 -100.48028493 503.69237614 C-107.43055183 503.69513858 -114.38081734 503.69937597 -121.3310833 503.70388031 C-140.57509429 503.71607368 -159.81910416 503.72637253 -179.06311893 503.7297554 C-180.29491848 503.72997497 -181.52671802 503.73019453 -182.79584482 503.73042075 C-184.03059212 503.73063903 -185.26533942 503.73085731 -186.5375033 503.7310822 C-189.03956926 503.73152567 -191.54163522 503.73197223 -194.04370117 503.73242188 C-195.90536786 503.73275402 -195.90536786 503.73275402 -197.80464398 503.73309287 C-217.91036662 503.73703999 -238.01605299 503.7544911 -258.12176163 503.7777814 C-278.76504584 503.80150132 -299.40831187 503.81395756 -320.05160993 503.81512332 C-331.64156947 503.81603977 -343.23148178 503.82178456 -354.8214283 503.83994293 C-364.69177453 503.85535261 -374.56205892 503.86045927 -384.4324149 503.85220483 C-389.4667703 503.84830129 -394.50100122 503.84921352 -399.53534126 503.86326218 C-404.1489467 503.87601875 -408.76233433 503.87478812 -413.37593954 503.86267146 C-415.04019386 503.8607175 -416.70446369 503.86377892 -418.36869622 503.87251583 C-434.07285708 503.94970413 -446.24809646 501.29726223 -459.3515625 492.3046875 C-470.1261059 481.5301441 -476.79872922 468.47226389 -477.23046875 453.1328125 C-476.99847686 449.39282198 -476.17426064 447.50514189 -473.8515625 444.5546875 C-469.60651172 441.29685784 -466.15775001 441.36699274 -460.88569832 441.36469555 C-459.58706136 441.3616879 -458.2884244 441.35868025 -456.9504348 441.35558146 C-455.50586635 441.35726906 -454.061298 441.35904013 -452.61672974 441.36088562 C-451.08470413 441.35918367 -449.55267897 441.35703408 -448.02065456 441.35447437 C-444.685307 441.34987404 -441.34997801 441.34845715 -438.01462746 441.34943962 C-432.58767084 441.35103121 -427.16073267 441.34583266 -421.73377991 441.33981323 C-413.85284557 441.33169596 -405.97191446 441.32675482 -398.09097672 441.32352257 C-385.62776579 441.31802571 -373.16458223 441.30112697 -360.7013855 441.28218079 C-356.43692975 441.27582373 -352.17247393 441.2695153 -347.90801811 441.26320362 C-346.84219522 441.26161986 -345.77637233 441.2600361 -344.67825178 441.25840434 C-332.54168805 441.24046246 -320.40512238 441.22423973 -308.26855469 441.20922852 C-306.60420725 441.20716471 -306.60420725 441.20716471 -304.90623663 441.20505921 C-286.94223988 441.18314885 -268.97825017 441.17237799 -251.01424243 441.16485777 C-232.56543417 441.15677874 -214.1166862 441.13346118 -195.66791236 441.0969041 C-184.29286683 441.07490827 -172.91794534 441.06520554 -161.54287963 441.07140443 C-153.73977258 441.07458592 -145.93677121 441.06320342 -138.13369687 441.04051002 C-133.63576731 441.02787791 -129.13807329 441.02162899 -124.64013481 441.03292656 C-120.51418268 441.04315614 -116.38868604 441.03472082 -112.26278733 441.0120636 C-110.7781524 441.00710303 -109.29347594 441.00873202 -107.80886163 441.01799627 C-88.4861356 441.12899572 -71.4624785 435.01851914 -56.8515625 422.15625 C-43.03068457 408.45590299 -35.87228928 389.94131148 -35.64359251 370.62353621 C-35.64011433 368.50150744 -35.65581692 366.38011086 -35.67199707 364.25814819 C-35.66897752 362.68943671 -35.66419166 361.12072783 -35.65781832 359.55202639 C-35.64543611 355.28982827 -35.65750765 351.02801298 -35.67389321 346.76584172 C-35.687164 342.15109248 -35.67707883 337.53638519 -35.66978455 332.92163086 C-35.66014086 324.9409947 -35.66452377 316.96046806 -35.6782074 308.97983932 C-35.69763096 297.43491042 -35.69110375 285.89010373 -35.67763358 274.34517153 C-35.65609197 255.60201585 -35.64933024 236.85888914 -35.65478516 218.11572266 C-35.65526611 216.43597691 -35.65526611 216.43597691 -35.65575677 214.72229691 C-35.65813076 206.77059362 -35.66103633 198.81889056 -35.6640625 190.8671875 C-35.66752396 181.7664389 -35.67074113 172.6656903 -35.67333984 163.56494141 C-35.67366535 162.44345307 -35.67399087 161.32196474 -35.67432624 160.16649191 C-35.67926547 141.47779373 -35.6686071 122.78913577 -35.64676809 104.10045016 C-35.63406537 92.58022651 -35.63552841 81.06016849 -35.65521896 69.53995378 C-35.6678081 61.65620892 -35.66638131 53.77254824 -35.65384543 45.88880353 C-35.64712211 41.33911089 -35.64706294 36.78966384 -35.6644268 32.23999405 C-35.68021493 28.07672071 -35.67770768 23.91387711 -35.66057676 19.75061281 C-35.65765442 18.24358914 -35.66152869 16.73653402 -35.67283493 15.22954993 C-35.68722838 13.18279575 -35.67463596 11.1359049 -35.66069794 9.08914757 C-35.66134735 7.95182477 -35.66199676 6.81450198 -35.66266584 5.64271486 C-34.96193293 1.21499043 -32.95409263 -2.10136026 -29.4140625 -4.8828125 C-20.08776584 -7.47345046 -8.51085058 -4.05578805 0 0 Z " fill="#0077B6" transform="translate(561.1640625,124.5078125)"/>
<path d="M0 0 C1.16169708 -0.00855011 1.16169708 -0.00855011 2.34686279 -0.01727295 C3.96690539 -0.02663452 5.58696627 -0.03322122 7.20703125 -0.03710938 C9.68001815 -0.04690726 12.15220401 -0.078049 14.625 -0.109375 C16.20832846 -0.11589833 17.79166278 -0.12115142 19.375 -0.125 C20.10841614 -0.1373468 20.84183228 -0.1496936 21.59747314 -0.16241455 C27.28051252 -0.13774384 30.44697745 1.22822745 34.421875 5.203125 C34.62866998 7.5724046 34.7363902 9.95060705 34.796875 12.328125 C35.56721649 29.40952595 40.48688883 45.33337298 53.421875 57.203125 C67.0915395 67.94767248 81.29145169 71.59533647 98.421875 70.203125 C112.50617076 67.65351421 124.89059029 60.13502565 133.32421875 48.6015625 C141.85332704 35.79888409 144.50818162 23.51019666 144.8828125 8.26953125 C145.52700201 4.60511989 146.50753643 3.4445163 149.421875 1.203125 C152.92722026 0.03467658 156.08843258 0.0478182 159.7355957 0.04199219 C160.84833359 0.03454483 160.84833359 0.03454483 161.98355103 0.02694702 C164.43826221 0.0123397 166.89290874 0.0055255 169.34765625 0 C171.05535382 -0.005753 172.76305137 -0.01151072 174.4707489 -0.01727295 C178.05268657 -0.02777912 181.63460182 -0.03362418 185.21655273 -0.03710938 C189.79978651 -0.04259074 194.3827227 -0.06661264 198.96586323 -0.09508133 C202.4943884 -0.11373314 206.02284228 -0.11891468 209.55141258 -0.12044525 C211.24065972 -0.123467 212.92990574 -0.13147938 214.61910439 -0.14463043 C216.98628801 -0.16174304 219.35274981 -0.15979816 221.7199707 -0.15332031 C222.76055382 -0.16714249 222.76055382 -0.16714249 223.82215881 -0.1812439 C228.39881838 -0.14213984 231.53687012 0.79077805 235.421875 3.203125 C236.55719957 5.47377415 236.64589681 7.00908094 236.81640625 9.53515625 C238.24644649 28.49410246 241.74223508 43.65251441 256.04296875 57.203125 C263.01516475 63.06480702 270.77684911 66.51018563 279.421875 69.203125 C280.02386719 69.39648438 280.62585938 69.58984375 281.24609375 69.7890625 C295.35166881 72.47342687 309.46955984 69.25875893 321.73046875 62.06640625 C334.81456565 53.00818532 342.602024 39.72103892 345.984375 24.2890625 C346.67869078 19.39165653 346.84005503 14.49051091 346.91796875 9.55078125 C347.51041737 5.61490168 348.61102723 3.97316191 351.421875 1.203125 C354.20653347 0.27490551 355.90149718 0.07208089 358.77880859 0.05786133 C360.0969606 0.04829155 360.0969606 0.04829155 361.44174194 0.03852844 C362.39167023 0.03741562 363.34159851 0.0363028 364.3203125 0.03515625 C365.7992247 0.03016365 365.7992247 0.03016365 367.30801392 0.02507019 C369.40113865 0.02000227 371.49427148 0.01766182 373.58740234 0.01782227 C376.74981581 0.01565722 379.91186802 -0.00244003 383.07421875 -0.02148438 C410.6695835 -0.10371059 410.6695835 -0.10371059 421.609375 5.703125 C422.61653564 6.22543701 422.61653564 6.22543701 423.64404297 6.75830078 C435.67992357 13.32727094 443.78811105 24.00862615 447.87890625 37 C449.4341643 43.31054344 449.5969179 49.39516852 449.625 55.859375 C449.63070007 56.87986938 449.63640015 57.90036377 449.64227295 58.95178223 C449.65169229 61.10342379 449.6582447 63.25507957 449.66210938 65.40673828 C449.671842 68.69198669 449.70290567 71.97661621 449.734375 75.26171875 C449.74090325 77.35676714 449.74615442 79.45181997 449.75 81.546875 C449.7623468 82.52515259 449.7746936 83.50343018 449.78741455 84.51135254 C449.77007118 89.83472124 449.44650774 93.62012925 446.421875 98.203125 C441.29036323 102.94977338 437.24172608 103.35008672 430.49506664 103.33455276 C429.67454145 103.3366054 428.85401626 103.33865803 428.00862667 103.34077287 C425.2354065 103.34646613 422.46223563 103.34498276 419.68901062 103.34356689 C417.69016885 103.34614919 415.69132759 103.34916197 413.69248706 103.3525703 C408.18108292 103.36065936 402.66969178 103.36243092 397.1582824 103.36316776 C391.22155603 103.365015 385.28483647 103.37256062 379.34811401 103.37930298 C365.68103483 103.39360934 352.01395661 103.39941444 338.34687165 103.40399492 C331.59529279 103.40632986 324.84371478 103.40993238 318.09213658 103.4136903 C294.98739579 103.42652615 271.88265547 103.43724565 248.77791119 103.4406929 C247.32722763 103.44091454 245.87654407 103.44113632 244.42586051 103.44135825 C242.97164565 103.44157889 241.51743078 103.44179938 240.06321591 103.4420197 C237.14574095 103.44246226 234.22826598 103.44290937 231.31079102 103.44335938 C230.58742552 103.44346877 229.86406003 103.44357816 229.11877437 103.44369086 C205.65737038 103.44732245 182.19599728 103.46324617 158.73460512 103.48654974 C133.93819445 103.51113439 109.14180143 103.52486509 84.34537822 103.52606082 C81.62445088 103.52623228 78.90352354 103.52644771 76.18259621 103.52669525 C75.51261226 103.52675102 74.84262832 103.52680679 74.15234183 103.52686425 C63.36110441 103.52801584 52.56989863 103.53904699 41.7786719 103.55358231 C30.9364343 103.56793405 20.09423931 103.57093884 9.25199493 103.56314233 C3.37589269 103.55922525 -2.50010286 103.5602169 -8.37619209 103.57419968 C-13.75192756 103.58687518 -19.12747548 103.58579722 -24.50321045 103.57360896 C-26.45139945 103.57164091 -28.39960146 103.5747811 -30.34777216 103.58345333 C-32.99000903 103.59447358 -35.63157555 103.58710919 -38.27379322 103.5750618 C-39.03528114 103.58265699 -39.79676905 103.59025218 -40.58133236 103.59807754 C-45.32217946 103.55121231 -48.55137192 102.70766789 -52.578125 100.203125 C-56.25256177 96.23076092 -57.69167737 93.22102738 -57.73925781 87.84619141 C-57.74886536 86.9674234 -57.7584729 86.0886554 -57.76837158 85.18325806 C-57.77262146 84.23332977 -57.77687134 83.28340149 -57.78125 82.3046875 C-57.78695007 81.31874603 -57.79265015 80.33280457 -57.79852295 79.31698608 C-57.80797754 77.22386752 -57.81450875 75.13073403 -57.81835938 73.03759766 C-57.82798222 69.87504947 -57.85896644 66.71317458 -57.890625 63.55078125 C-57.99339246 44.21509306 -55.79645444 29.01622268 -41.91796875 14.421875 C-30.11441673 3.22919129 -15.75628259 0.09232111 0 0 Z " fill="#0077B6" transform="translate(57.578125,39.796875)"/>
<path d="M0 0 C3.26808569 2.01873111 5.86394137 4.39424267 8.375 7.3125 C8.8184375 7.79203125 9.261875 8.2715625 9.71875 8.765625 C14.54320959 14.54375683 15.62862139 21.46385581 15.2421875 28.8515625 C13.4709854 37.48265847 6.39668409 43.35770445 0.375 49.3125 C-0.77001977 50.45784516 -1.91455165 51.60367828 -3.05859375 52.75 C-4.69691593 54.39042559 -6.33749849 56.02727054 -7.99560547 57.64770508 C-10.79789535 60.40016251 -13.4473951 63.22262908 -16.01171875 66.19921875 C-20.30656927 71.16619356 -24.97924086 75.71742591 -29.6640625 80.3125 C-33.58486771 84.18789047 -37.28175095 88.16746085 -40.87890625 92.34375 C-43.81128435 95.65005551 -46.97084132 98.71968115 -50.125 101.8125 C-55.80100394 107.39701207 -55.80100394 107.39701207 -61.125 113.3125 C-65.1630156 118.10764352 -69.70625059 122.4170078 -74.15625 126.82421875 C-77.25505448 129.90457796 -80.30829772 132.96766604 -83.125 136.3125 C-87.12214419 141.05910873 -91.60623309 145.34271627 -96.03320312 149.68359375 C-99.18002478 152.78775776 -102.20835991 155.93131865 -105.09375 159.28125 C-109.35639913 164.22477222 -114.00700168 168.7446549 -118.6640625 173.3125 C-122.65155655 177.25380686 -126.41755849 181.30442988 -130.07958984 185.54931641 C-137.45026198 193.95863618 -146.37258739 200.41987392 -157.73046875 201.515625 C-168.95938236 201.76843356 -176.61970429 197.83894749 -184.74682617 190.35986328 C-186.9229348 188.2462994 -189.06081829 186.10074908 -191.1875 183.9375 C-191.90357422 183.22078125 -192.61964844 182.5040625 -193.35742188 181.765625 C-196.64472087 178.45140545 -199.84152805 175.10659211 -202.87109375 171.5546875 C-207.95595413 165.66069064 -213.59053372 160.27921705 -219.125 154.8125 C-225.85524412 148.16464302 -232.49234937 141.52573701 -238.625 134.3125 C-240.7189223 132.03168215 -242.81656889 129.75495936 -244.92578125 127.48828125 C-249.8003002 121.24665584 -249.54239811 113.89136548 -248.625 106.3125 C-246.29109376 99.66574801 -242.14306604 95.00102222 -236.109375 91.4375 C-228.44277408 87.96583166 -220.56729785 87.44028537 -212.625 90.3125 C-207.33247512 93.04123511 -203.4275264 96.0857117 -199.28125 100.328125 C-198.70846313 100.90278503 -198.13567627 101.47744507 -197.54553223 102.06951904 C-196.3420817 103.27965221 -195.14221399 104.49335806 -193.94580078 105.71044922 C-192.13688951 107.55040643 -190.31763598 109.3795861 -188.49609375 111.20703125 C-183.15712981 116.5822325 -177.86717341 121.96179671 -172.97460938 127.75292969 C-169.7922235 131.43040454 -167.15959223 133.9714795 -162.25 135.0625 C-153.27093873 133.20476319 -145.65314019 122.49441362 -139.29760742 116.11547852 C-137.566053 114.378564 -135.82921641 112.64706111 -134.09179688 110.91601562 C-127.45590576 104.31755948 -127.45590576 104.31755948 -121.19140625 97.37109375 C-115.17066972 90.31156491 -108.32251219 83.95913661 -101.73144531 77.43945312 C-92.87098135 68.68872614 -92.87098135 68.68872614 -84.53515625 59.4453125 C-79.08914614 53.36449139 -73.10692061 47.74957194 -67.30419922 42.01220703 C-58.56024508 33.37694326 -58.56024508 33.37694326 -50.32519531 24.26171875 C-46.63784014 20.03428571 -42.6824751 16.06021978 -38.75 12.0625 C-37.90308594 11.17820313 -37.05617188 10.29390625 -36.18359375 9.3828125 C-26.49801599 -0.43625715 -13.75214162 -6.39331062 0 0 Z " fill="#0077B6" transform="translate(370.625,234.6875)"/>
<path d="M0 0 C7.93512243 5.60568308 13.11305763 12.21915263 15.75 21.64453125 C18.47825788 38.37305982 19.27589094 58.6176706 9.1328125 72.92578125 C3.21573027 80.29144377 -4.80737165 85.26560774 -14.25 86.64453125 C-25.79397399 87.56663055 -35.24658862 85.02465099 -44.25 77.64453125 C-51.78111197 70.72364772 -55.19568018 62.74591925 -56.25 52.64453125 C-56.41127353 48.70604282 -56.43505948 44.77347043 -56.4375 40.83203125 C-56.44974609 39.80271484 -56.46199219 38.77339844 -56.47460938 37.71289062 C-56.49853375 25.10474658 -54.37793 13.89209618 -45.625 4.33203125 C-33.12707074 -7.40556771 -14.47679012 -8.72126071 0 0 Z " fill="#0077B6" transform="translate(167.25,5.35546875)"/>
<path d="M0 0 C8.04019992 5.98281753 13.15546735 14.99972903 14.75 24.875 C14.96468787 29.08906266 14.97805629 33.30106306 14.99023438 37.52026367 C14.99988919 39.53932716 15.03092891 41.55734887 15.0625 43.57617188 C15.11481263 56.75241644 12.52176768 66.68666219 3.625 76.5625 C-4.04203602 83.91007619 -14.04614164 86.23398786 -24.3515625 86.08203125 C-34.14756511 85.38231678 -42.26602055 81.03010321 -49.0703125 73.9921875 C-56.89171907 64.2842105 -57.92352517 54.41341763 -57.82641602 42.39892578 C-57.81256161 40.01062086 -57.84669361 37.62625651 -57.88476562 35.23828125 C-57.94862592 22.67909078 -55.61055301 12.2527222 -46.63671875 2.8515625 C-33.05335424 -8.3975086 -14.76833695 -9.48607038 0 0 Z " fill="#0077B6" transform="translate(371.25,6.125)"/>
</svg>
